<svg id="图层_1" data-name="图层 1" xmlns="http://www.w3.org/2000/svg" viewBox="0 0 185.17 157.73"><defs><style>.cls-1{fill:#eee;}</style></defs><path class="cls-1" d="M116.85,149.46c.66.23,13.74-3.76,14.27-5.34l.11-.31c-.66-.22-2.73.48-5.67,1.59-2.72,1.53-5.23,2.44-5.55,2.32l-1.75.82C117.39,148.94,117,149.15,116.85,149.46Z"/><path class="cls-1" d="M179.64,71.4c-6-12.57-11.78-12.78-15.73-15.17L157.34,54c-8.05-1.87-26.13-.82-40.26,2a48.5,48.5,0,0,0,.81-10.71,57.2,57.2,0,0,0-.75-10.34A46.14,46.14,0,0,0,106.8,15C99.16,5.69,93.47,2,85.53.45a33.56,33.56,0,0,0-6-.45A60.58,60.58,0,0,0,66.66,1.35a64.16,64.16,0,0,0-6.89,1.94c-3.15.9-7.34,2.85-7.49,3.15s-.9.9-1.8,1.35c-3,1.5-12,7.64-12,8.24l.15.15c0,.45-1.5,1.79-1.95,1.79-.15,0-.15,0-.15-.14,0-.45,1.2-1,1.2-1.35H37.6c-2.25.9-1.5.6-6.14,4.34l1.64-.9a6,6,0,0,1,1.95-1.05c0,.45-5.54,4.2-6.44,4.2a4.9,4.9,0,0,1,1.2-1.65c2.7-2.4,10.78-8.09,18.57-13.18-2.69.9-3.14,1.35-3.44,1.95l-.15-.3C42.24,11.23,29.51,19.17,29.51,21c0,.15-.3.3-.6.3-1.5,0-8.24,7.34-15.28,15.43C10,41.34,8.24,45.09,8.24,47.63a3,3,0,0,0,.45,1.65c1.65,2.85,1.05,3.9,5.09,3.9,1.35,0,2.1-.15,2.1-.3,0-.3-1.2-.75-3.6-1.2-.9-.15-1-.15-1-.6.15-1.65.9-2.25,3-5.69.15-.3,2.1-2.4,4.19-4.65A98.93,98.93,0,0,1,30.86,29.66c.6-.6,3-1.95,5.54-4.05,11.23-7.93,29.21-15.27,44.49-15.27,12.13,0,15.43,1.94,23.52,8.53-1.35-1.64-2.25-2.69-2.25-3.14-1-2.55-1.35-2.4-1.35-2.85,0-.15-.6-.3-.6-.75V12h.15c.6,0,2.55,2.25,2.55,2.55a8.87,8.87,0,0,0-1.2-.75l.6.9c1,1.8,2.4.9,3,2.55-.6,0-.45-.3-1-.75a.4.4,0,0,0-.45.45.53.53,0,0,0,.6.6c.75,0,.45.59.9.59.15,0,.45.45.75,1.05.29,1.5,2.24,3.75,2.24,4.2,0,.15,0,.15-.15.15-.3,0-.3-.15-.75-.45.3,1.2,2.4,2.84,2.4,14.68,0,8.39.6,6.44,1,8.09q.23.9.45.9c.15-.15.15-.6.15-1.2,0-1.35-.3-3.45-.6-3.45l-.15.15.15.3c0,.15,0,.3-.15.3s-.3-.3-.3-.6a1.07,1.07,0,0,1,1.2-1.05c.45,0,.15-1.79.6-1.79l.15.15.15.74c0,1.65-.6,2.4-.6,3,0,1.05.15,3,.6,3.6-.6.3-1.2,1-1.65,1-.75,0-.6-2.54-.75-2.54s-.45.75-.75,2.09a112,112,0,0,1-2.38,11C91.33,63.19,70,74.7,44.28,88.73,48.92,78.45,65.9,40.1,68,33.1a15.27,15.27,0,0,0,.9-4c0-1-.45-1.35-1.2-1.35-1.5.15-2.25.75-4.35,5.69.45-.44.75-.6.9-.6h.15a85.47,85.47,0,0,0-4.34,8.09l.6-2.24h-.45a1.49,1.49,0,0,0-.9,1.19l.15.6-.3.15c-.3,0-2.25,4.2-2.55,4.2l-.15-.15c0-1.5,8.84-16.18,8.84-17.38l-.45-.15-.9.3c-.9.15-1.2.6-2.69,3.6-.9,1.65-1.65,3-2,3a6.33,6.33,0,0,1,.75-2.24c0-.15-.3,0-.3-.6a11.89,11.89,0,0,1,.6-2.55A4.1,4.1,0,0,0,59,30.41c0,.3-5.84,11.68-6.44,13.48-4.8,9.89-4.95,12.88-7.49,17.82-3.9,10.19-2.85,9.14-4.5,14.54-.89,4-1,5.69-1.94,8.23-1.35,4-1.35,5.85-2.25,5.85-.15,0-.3-.15-.3-.6-.15,0-.75,1.79-1.2,4.49v.15c.75-.45,2.25-3.74,2.7-3.74l.15.15c0,.74-.75,1.64-.75,2.39,0,1,.6,1.5.6,1.8a.15.15,0,0,1-.15.15c-.9-.3-.75-1.2-1.05-1.2l-.45.45c-.75.6-2.25,4.34-2.25,4.94a24.76,24.76,0,0,0,4.5-3,2.12,2.12,0,0,0,.9-1.2,9.26,9.26,0,0,1,3.14-2.4c.3.45.15.75.6.75a1.38,1.38,0,0,0,.64-.25,6.93,6.93,0,0,0,1-.21,1,1,0,0,0-.29.46c0,.15-.45.45-1,.75-2.25.6-4.19,3.15-5.24,5.24-.15,0-.15-.15-.15-.45A3.67,3.67,0,0,1,39,96.62c-1.65,1.2-3,2.09-3,3.14l.15.6-.45-.15c-.6,0-.75,2.4-1.35,2.4-.3,0-3.74,10.19-4,10.19a1.43,1.43,0,0,1-.3-1,13.19,13.19,0,0,1,.45-3c-1.35,4-2.55,3.9-3,8.84-1.05,4.64-2.09,6.59-2.09,8.09-.3.6-.3,1.2-.9,2.4.3-2.55,1.94-9.14,1.94-9.74v-.15c-1.34,2.54-1.94,2.84-1.94,4.49l.15.75-.3-.15c-.3,0-.6,1.2-.6,2.1l.3.9-.45-.15c-.15,0-.15,0-.15.3l.15,1c-.3.44-.6.44-1.2,5.39l.15.6.3.15c-.6,0-.75.3-.75,1,0,1.19-1.05,5.09-1.05,6.89,0,3.59,1.8,3.29,5.39,4.79a1.58,1.58,0,0,0,1.35-.75c0-.6-1.2-.75-1.2-2.1.3-4.34,1.95-10.93,6.44-24,5.25-14.53,6.6-20.08,8.69-21.87a113.68,113.68,0,0,1,9.51-7c2.66-1,5.91-2.29,9.65-3.84,22.66-9.43,31-12.55,41.59-15.07C97.76,83,91,94.35,81.34,107.4c-12.13,16.18-22.17,26.37-34.9,34.76-3.3,2.09-10.34,5.69-11.39,5.69a1.61,1.61,0,0,0-.9.3A42.86,42.86,0,0,1,27,150.09l-3.14.15c-3.9,0-8.69-.45-9.59-1.19-7.19-2.55-8.54-3-8.54-7.19,0-5.55,4.2-14.38,17.38-27.87,3.59-3.59,5.09-5.39,5.09-6l-.15-.15c-.75,0-4.94,4.2-11.68,11.69a18.54,18.54,0,0,1-3,2.84c0-.75,16.48-17.82,16.48-18.27h-.15c-1.05,0-3.9,3.74-4.94,3.74-.3,0-.45.15-.9.3-.15,0-.15,0-.15-.15,0-.6.9-1.65,1.5-1.65a4.34,4.34,0,0,0,1.49-1c5.1-4.65,7-6.15,7-9.44,0-1.35.45-1.2.45-1.65v-.6c0-.75.3-.75.3-1.5a5.61,5.61,0,0,0,.9-3c0-.6.45-.6.45-1.35a1.07,1.07,0,0,1,.45-.9H36c-.45,0-1.2,2.55-2.7,8.39-.89,3.89-1,4-2.39,4.94A80.16,80.16,0,0,1,24,106.05C8.09,119.69.15,129.87,0,137.51c0,3.45.9,4.5,3.45,8.84,3.74,6,11.08,10.49,22.31,11.38,2.55,0,5.7-.74,11.54-2.69,6.89-2.1,7.64-2.55,12.13-5.25,5.69-3.44,8.39-5.69,8.39-6.44l.3.15a1.73,1.73,0,0,0,1.05-.9c3-3.29,3.59-4.94,5.54-6.44,7.94-7.82,11.9-11.85,13.65-13.07a8.33,8.33,0,0,0,0,1.73c-2.24,2.52-6.15,7.23-6.15,7.45.34,0,3-2.53,6.31-6.35.79,3.7,3.89,8.13,9.87,14.58a26.81,26.81,0,0,0,11.42,7.38c8.21,2.79,18.89-.6,19.88-.27l.33.11c.32-.94,19-8.63,32-18.63,2.07-1.76,3.92-2.89,4.24-2.78-.42,1.26-8.9,7.87-15.42,12a9,9,0,0,0-2.6,2.28c.65.22,5.11-3.18,5.76-3,1,.33,1.41-2,3.59-3,9.58-4.47,30.61-26.48,32.53-32.14.86-2.52.2-2.74-.69-4.45.33-1,3.07.69,4.35-3.09C186.09,86.94,186.06,83.77,179.64,71.4Zm-166-26.61a8.24,8.24,0,0,1-1.05,1.35c-.15,0-.15,0-.15-.15,0-.3.6-1.5,1.05-1.5.15,0,.15,0,.15.15ZM25.76,31.46c-1.49.9-1,1.2-4.34,4.19-3,3-3,3.9-3.59,3.9h-.3c-.45,0-.75,1.34-1.05,1.34-.6,0-1.8,2.25-2.1,2.25V43c0-.45,1.8-3.29,3.74-5.69C20.82,34,24.87,30,25.46,30c.15,0,.3,0,.3.15l-1.19,1.35a10.34,10.34,0,0,1,2.54-1.35c.15,0,.15,0,.15.15S26.51,31,25.76,31.46Zm3.45-3-.15-.3a.32.32,0,0,1,.3-.3c.3,0,3-2.4,3.45-2.4H33S30.11,28.46,29.21,28.46ZM45.84,18.12l-3.6,1.95a8.2,8.2,0,0,1-2.54,1.2c0-.6,5.84-4,6.89-4,.15,0,.15.15.15.3S46.29,18,45.84,18.12Zm.9-5.09-.15-.15c.89-1.05,1.49-1.65,1.94-1.65h.15C48.68,11.68,48.23,12.13,46.74,13Zm6.89,1.2-.3-.3a.55.55,0,0,1,.15-.45c.3,0,.45.15.6.45C53.78,14.23,53.93,14.08,53.63,14.23Zm6.29-2.85c-1.8,0-.9.75-3,1.65-.15,0-.15-.15-.15-.3,0-.3,1.35-.6,1.35-.9l-.3-.3c0-.3,1.35-.74,2.25-.74.6,0,.9,0,1,.29S60.67,11.38,59.92,11.38Zm3.59-.75h-.45c-.45,0-.89-.14-.89-.44.59-.6.14-.3,1-.75l.15.15-.15.15a.32.32,0,0,0,.3.3,15,15,0,0,1,2.4-.3c.6,0,.9,0,1,.3S64.86,10.34,63.51,10.63Zm4.65-1.79-.3-.15-.15-.45c0-.15.15-.3.45-.3a.48.48,0,0,1,.45.45A.4.4,0,0,1,68.16,8.84Zm1.94,0c-.45,0-.89-.15-.89-.3s.29-.3.59-.3c.6,0,.75.15.9.45ZM73.85,2C71,2.1,69.5,2.55,69.5,3c0,.29-1.79,1-1.79,1.34a31,31,0,0,1,5.39-.89l.3.14c0,.15-.45.15-1.35.3-5.69,1.35-13.18,4.2-14.53,4.2h-.3c0-.3,2.7-1.5,6.59-2.55a11.42,11.42,0,0,0,3-1.2c-1.5,0-16.48,6.15-17.38,6.15l-.15-.15c0-.3,2.1-1.5,5.69-3.3C63.21,3.15,71.6,1.35,74.9,1.35c.45,0,.9,0,1,.15C76,1.65,75.2,1.8,73.85,2ZM91.67,8.39c-.74,0-.74,1-1,1s-.45-.9-.75-1.35c0-.3.9-.9,1.2-.9s.74.6,1.79,1.35Zm7,3.44H95.87c-.75-.15-1.35-.3-1.35-.6s1.35,0,1.35-.44-2.1-1.8-2.1-2.1l.15-.15c.45,0,3.3,1.65,4,1.65h.15c.45,0,.59,0,.74.44-.44.16-.59.16-.59.3Zm12.44,28.76c-.3,0-.3-.15-.3-.45l.3-.14.3.14C111.3,40.44,111.45,40.29,111.15,40.59Zm-53,3.15a1.12,1.12,0,0,1,.45-.45v.15c-.15.6,0,.3-.6.6Zm.45-9.29c0,2.4,0,2.25-1,2.55-.15,0-.15-.15-.15-.6S57.82,35.2,58.57,34.45ZM57.22,37.6v.3c-.45,1.94-.6,4.34-1.2,4.34-.15,0-.15-.3-.15-.6C56,39.84,56.77,37.6,57.22,37.6ZM22,141.26h-.15a.67.67,0,0,1-.45-.6l.15-.15.45.3Zm4.64-19,.15-.6a4,4,0,0,1,.75-2.24c.15,0,.15.15.15.45A4.47,4.47,0,0,1,26.66,122.23Zm4.95-1.5c-.15,0-.15-.15-.15-.29,0-.75.3-1.8.6-1.8l.15.3C31.91,120,31.76,120.73,31.61,120.73Zm-9.14-11.68.15.15c-.45.6-.6,1-1.05,1,0,0-.15,0-.15-.3S22.17,109.05,22.47,109.05Zm-4.94,5.39c0-.75.59-1.35,1.34-2.39,0-.45.15-.45,1.05-.75h.15a12.07,12.07,0,0,1-2.54,3.44ZM13,122.83c-.45.75-.15.3-.75.9-.15,0-.15,0-.15-.15A2.5,2.5,0,0,1,13,122.83Zm0,1.35c-.15.75-.3,1.2-.6,1.2a.32.32,0,0,1-.3-.3Q12.13,124.41,13,124.18Zm-3.59,5.09.15.15c0,.3-.45.75-.9,1.35-.15,0-.15-.15-.15-.3C8.54,129.72,9,129.57,9.44,129.27ZM22.32,152a2,2,0,0,1,1.5.45c0,.15-.15.15-.45.15a1.58,1.58,0,0,1-1.5-.6Zm3.89,3.45a44.18,44.18,0,0,1-6.74-.75c1.35.75,2.25,1,2.25,1.35l-.15.15a6.4,6.4,0,0,1-3.15-1.65c-1-.75-2.84-1.5-2.84-2,0-.15.3-.3.6-.3s.45.45.6.45l.75-.3c.15,0,.45.15.74.6,1.05,1,4.05,1.8,7.49,1.8,1.65,0,2.7.15,2.7.3A4.83,4.83,0,0,1,26.21,155.49Zm139.17-92.8c.1-.31,1.09,0,2.07.36s1.54.87,1.43,1.19-1.2.29-1.85.07Q165.05,63.64,165.38,62.69Zm-3.19-2.48a.9.9,0,0,1,1.31-.61c.65.22,1.2.76,1,1.39-.11.31-.87.4-1.53.18S162.08,60.52,162.19,60.21Zm-15.1-3a.33.33,0,0,1,.22.42,2.18,2.18,0,0,1-2.17,1l-.55-.54C146,57.17,146.11,56.85,147.09,57.19Zm-29.27-.11.21-.63,1.42.13c1.64.56,6.76-1.57,12.88-1.25a33.59,33.59,0,0,1,9.39-.67c1,.33,1.21.76,1.87,2-.21.63-1.3.61-3.38.26-6.67-.87-10.38-.72-10.6-.09,0,0-9,2.47-13.92,4.4a4.06,4.06,0,0,0,.1-.9c.45-.3.6-.15.6-.75l-.15-.6c.15-.3.45-.15.45-.75,0-.16,0-.3.07-.45C117.33,57.64,117.69,57.45,117.82,57.08Zm-11.74,8.65h-.26q.42-1,.78-2l.23-.19a.61.61,0,0,0,0-.35c.57-1.53,1-2.79,1.25-3.56a10.76,10.76,0,0,1,1.13,0c-.19.66-.38,1.34-.59,2.05-.32,1.11-.85,2.55-1.48,4.12A3.69,3.69,0,0,1,106.08,65.73Zm6.12-13a23.48,23.48,0,0,1-1.6,4.7l-.46.12c.23-1.15,1.51-5,2.06-5Zm2.39,11.38c0-.34.26-.42.39-.77,5.64-.75,19.4-4.15,21.32-3.5l.33.11c-4.51,1.6-14.73,3.82-22.15,5A5.09,5.09,0,0,0,114.59,64.11Zm1.8-15.28c-.15.9-.3,1.2-.45,1.2s-.3-.3-.3-1.05.15-1.2.3-1.2C116.39,47.78,116.39,48.08,116.39,48.83Zm-.9-3.74c-.15,0-.3-.3-.3-.6a.66.66,0,0,1,.15-.45c.3,0,.45.15.45.6C115.79,44.94,115.64,45.09,115.49,45.09Zm-.15-9.89.15.6c0,.3-.15.6-.3.6s-.15-.15-.15-.3C115,35.5,115.19,35.2,115.34,35.2Zm-.3,7.64c.75.3,1,.45,1,.6h-.3c-.75,0-.6-.15-.9-.45Zm1.2,7.79c.15,0,.15.15.15.45s-.15.45-.3.45-.69,3.2-1.16,4.86l-.62.14a6.57,6.57,0,0,1,.58-2.45C115.49,52.28,115.64,50.63,116.24,50.63Zm-5.69-2c.3.15.3,0,.45.3-.3.15-.6.15-.6.9v1c.45-.9.6-1.35.9-1.35s.3-.9.75-.9.45.15.75.45c-.3.15-.45,0-.45.45v.6c0,.3-.15.45-.3.45-.35,0-1.07,2.66-2.3,7l-1.34.39C109.13,54.36,110,48.68,110.55,48.68Zm-4.94,12a2.69,2.69,0,0,1,.93-.72c-.17.61-.34,1.22-.52,1.83C105.74,61.32,105.52,60.91,105.61,60.66ZM94.72,65.74c.33.11.33.11.22.43-1.84,1.12-.75,1.14-3,1.42ZM49,89.13c-1.19.71-2.29,1.39-3.21,2,2-1.78,4.26-3.35,4.65-3.35A6.49,6.49,0,0,1,49,89.13ZM77.44,76A82.45,82.45,0,0,1,90,71.48c-5.05,2-12.4,5-21.5,8.67C71.49,78.66,75.25,76.87,77.44,76ZM46.14,78c.15,0,.15,0,.15.15a6.27,6.27,0,0,1-.6,1.5l-.15-.15A2.67,2.67,0,0,1,46.14,78Zm-1.2,3.15c0-.3.15-.6.6-1v.15c-.3.75,0,.45-.6,1Zm-1,2.25c.3-.75,0-.45.6-1v.15c-.3.75,0,.45-.6,1ZM40.59,87l-.15.15c-.59,0-.44.9-.59,2.1a5.54,5.54,0,0,1-.75-1.65c0,1.05,0,1.8-.45,1.8-.15,0-.15,0-.15-.3,0-.9,1.35-6.74,1.79-7.19v.3a19.73,19.73,0,0,1-.44,2.69C40.59,83.59,41,83,41.19,83s.15.15.15.3c0,.45-.9,2.39-.9,3.14Zm1.35-2.1.6.15c.6,0,.6-.3.9-.45l.15.15c-.3,1.35,0,.9-1.05,1.8-.15,0-.3-.15-.3-.45,0-.15.3-.3.45-.3s-.15-.3-.75-.75ZM43,92.57c-.15,0-.3-.15-.3-.45a1.3,1.3,0,0,1,.45-.9c.08-.15.3-.63.65-1.39,1.73-.73,4.71-2.2,9.09-4.37-.9.61-2.06,1.37-3.3,2.17A31.87,31.87,0,0,0,43,92.57ZM53.42,89.2c1-.69,2.09-1.38,3.13-2a2,2,0,0,1,.86,0l.22.43C57.48,88,55.93,88.56,53.42,89.2Zm10.52-5.12c-3.48,1.63-5.33,2.76-6,2.53l.11-.31a.61.61,0,0,1,.21-.24l.44-.27c1.32-.73,4.61-2,9.37-4.17ZM99.11,67.93l2.18,0-.46.37c-.28-.22-.66-.33-1.82-.33a56.58,56.58,0,0,0-6.08.48c3-1.17,5.19-2,5.29-2.27a3.19,3.19,0,0,1-2,.39l.11-.31c.32-1,7.18-3.89,8.16-3.55l.22.43-1,.72.32.11a3.58,3.58,0,0,0,1.12.23c-.17.5-.32,1-.5,1.49C102.9,65.83,101.39,66.44,99.11,67.93Zm2.3,9.06a5.48,5.48,0,0,1,.45-1.64c.48-1.09,1-2.4,1.61-3.79l1.26-.28c-1.52,3.23-3,5.86-3.32,5.86ZM84.93,107.85c3.45-4.64,10.34-16.63,15.58-27a19,19,0,0,1,2.4-4.35c.32-.31,2-3.63,3.09-5.54l1-.22-.53,1.57c.75-1.2,1-1.65,1.35-1.65s.15,0,.15.15c0,2.85-6.59,13.63-6.59,14.53v.15l.45-.15-.75.75c0,.45-1,2.25-1.35,2.25,0-1.2,2.25-5.24,3.9-9v-.15a8.58,8.58,0,0,0-2,3c-1.65,3.29-2.55,4.49-2.55,5.09S98,88.68,95.57,93.17c-2.1,4-2.55,3-3.6,4.65C89.88,101.56,84.33,110,83.89,110c-.15,0-.15,0-.15-.15A13,13,0,0,1,84.93,107.85Zm.3,5.24c-.15,0-.3,0-.3-.29l.3-.3c.3,0,.45.15.45.3S85.53,113.09,85.23,113.09ZM65.16,129.27l-.15-.15a13.39,13.39,0,0,1,2.85-2.24C66.21,128.52,65.46,129.27,65.16,129.27Zm21.34-8c-.33-.11-.33-.11-.22-.42l2.48-4.08c0-1-.88-.65-.13-2.85.32-1,1-1.78,1.3-1.67s.55.54.33,1.17c1.65.56,10.26-2.14,19.4-6.41l-4.15.35a38,38,0,0,0-16,4.19c3.51-5,5.6-7.66,8.2-12.36.6-1.49,2.84-4.34,2.84-5.24l-.15-.3h.45c.45,0,.6-.9.6-1.65l.3.15c.3,0,.3-.15.3-.6v-.89l.45.59c.6,0,2.85-5.24,2.85-6.59l-.15-.3h.45c.74,0,1-1,1-2.09,0-.15,0-.15.15-.15.45,0,4.8-9.89,5.7-11.09.2-.48.38-.93.55-1.37,24.07-4.41,39-4.8,49.64-1.18l8.76,3.33c2.08,1.41,2,1.73.48,6.13-4.17,12.28-16.1,24.74-31.41,37.45-23.65-8-25.29-8.59-32.48-5.77l.66.23c8.84-.16,20.67,3.86,20.88,3.23l1.53-.18c.33.11.33.11.22.42-1.85,1.13-2.17,2.08-4.14,1.41L123.36,113c-6.9-2.34-22.16,2.66-23.8,2.1-.33-.11-.22-.42-.11-.74l.1-.31c.11-.32.22-.63-.11-.74-2.84-.27-4.91,1.49-5.23,2.43l-.21.64C93.36,118.3,87.48,121.58,86.5,121.24Zm5.18-8.77.1-.32c.22-.63,7.08-3.57,8.72-3l.66.22C100.94,110,93,112.91,91.68,112.47Zm38.8,3.34-.11.32c-.53,1.57-6.33.3-15.09-2,11.81,1.91,12.25,1.7,14.65,1.11ZM99.7,119.05l.88.65c1.42.13.65.23,1.85-.07l-.1.32c-3.7,2.25-1.85,1.12-6.1,2.84.11-.31,3.15-1.74,3.58-3Zm-8.11,12,.76-1.15c10.4-11.21,24-10.12,37.41-7.66l-5.55,3.38c-12.17,7.81-21.45,9.22-31.41,6.19C91.81,131.48,91.49,131.37,91.59,131.05Zm14.21,16.42c-1-.34-1.53-.88-1.43-1.19,1.2-1.35,5.78-1.9,7.75-1.23l.66.22.11.74C112.47,147.27,108.43,148.36,105.8,147.47Zm12.38-10.55c-.86,2.52-9.14,5.32-13.94,5.45l-.22-.43,2.5-.9c7.2-1.77,7.72-4.4,11.44-4.55A.33.33,0,0,1,118.18,136.92Zm16-5.1c-.21.63-1.31.61-2.94,1.11,1.74-.81,2.39-1.64,3.05-1.42Zm29.08-11.19c-2.92,3.22-1.3,1.67-5.21,4.55l.11-.31c3.25-3.11,1.41-2,5.21-4.55Zm3-27.08a52.87,52.87,0,0,1-3.33,6.59c-.11.31-.11.31.22.42l1.75.25-.22.63a2.29,2.29,0,0,1-2.07.7,3.46,3.46,0,0,0-2.39,1.64c-6.69,11.08-30.81,29.22-32.45,28.67l-.66-.23c-1.31-.44-4.87,5.72-6.84,5.05-.56-1.59.09-2.42-.57-2.65-2.5.91-3.81,1.52-4.47,1.3-8.18,1.43-12.32,2.83-13.63,2.39s-3.6.88-6.56-.12c-.33-.11-.66-.22-.55-.54a2.55,2.55,0,0,1,3-1.42l.66.22c1.64.56,5.34-.64,7.86-.49,4.26.39,25.82-9.14,44.92-26.53,3.25-3.11,6.29-5.59,6.62-5.48l.22.43c.66.22,7-13.08,8.65-12.52C166.79,92,166.57,92.6,166.25,93.55Zm3.59-3-.12-.74c.32-1,1.42-.93,1.85-1.13.66.22.55.54.34,1.17A2.32,2.32,0,0,1,169.84,90.55Zm2,8.06-.22-.43.65-.83a6.51,6.51,0,0,0,.08-4.54,18.57,18.57,0,0,0,4.21-7c.85-2.52,1-2.83.08-3.48l-.65.83-.77-1c1.52-1.24,2.06-1.76,3-1.42.32.11.55.53.66,1.28l-1.06,4.2C175.54,93.19,173,98.63,171.86,98.61Zm8.6-4.81c-1.07,3.15-2.7,4.71-4.12,4.58l-.22-.43c1.3-1.67,1.52-1.24,2.8-5l1-2.83c.43-1.26.65-1.89,1-1.78S181.3,90.23,180.46,93.8Z"/><path class="cls-1" d="M20.22,35.8a14.74,14.74,0,0,0,2-2.1l-2.1,1.95C20.07,35.8,20.07,35.8,20.22,35.8Z"/><path class="cls-1" d="M68.31,134.22l.15.15c.3,0,.6-.45.75-.9C68.46,133.77,68.31,133.92,68.31,134.22Z"/><path class="cls-1" d="M67.86,134.82l-.15-.15c-.45,0-1.2,1-1.2,1.34v.15c-.3.75,0,.6-.75.9l-.15-.15c-.75.45-.45.3-.75.9,0,.3-.6.75-1.2,1.35-.9.6-1.49,1.05-1.49,1.2.59,0,4.79-3.15,6.44-5.39l-.9.59Zm-.9,1.49c-.15,0-.15-.15-.15-.3s.15-.45.6-.45l.15.15C67.26,136,67.26,136.31,67,136.31Z"/><polygon class="cls-1" points="36.25 88.98 36.4 88.98 36.55 88.68 36.25 88.23 36.25 88.98"/><path class="cls-1" d="M32.36,104.26c0,.3,0,.3.15.3l.3-.6.29-1H33C32.66,102.91,32.36,103.66,32.36,104.26Z"/><path class="cls-1" d="M29.36,106.35c-.3.3-3.45,10.49-3.45,10.94.15,0,.45-2.1,1.2-2.85.9-.45.75-1.49,1.05-2.54l-.15-.3c.15-.6,0-.45.45-.9l-.15-.15c.3-2.1,1.2-3.6,1.2-4.2Z"/><path class="cls-1" d="M98.71,86.13c-.59,0-3.89,6.59-5.54,10,0,0,1.35-2.1,3-5.09A37,37,0,0,0,98.71,86.13Z"/><path class="cls-1" d="M72.8,130.17l-.45.3c-.3.15-.6.45-.6.6C72.05,131.07,72.35,130.92,72.8,130.17Z"/><path class="cls-1" d="M37.3,82.54v-.15a39.34,39.34,0,0,0-1.5,4v.15l.3-.3C36.55,86,37.3,83.14,37.3,82.54Z"/><path class="cls-1" d="M73.85,129.27,74,129c-.75.45-.3.15-.9.75,0,.15,0,.15.15.15Z"/></svg>